<svg id="Layer_1" data-name="Layer 1" xmlns="http://www.w3.org/2000/svg" width="10.79cm" height="5.41cm" viewBox="0 0 305.74 153.21"><defs><style>.cls-1{fill:#fff;}</style></defs><title>logo</title><path class="cls-1" d="M182.51,7l0.17-.41A2.65,2.65,0,0,0,182.51,7Z"/><path class="cls-1" d="M182,4.34l0.71-1.58S182.3,3.53,182,4.34Z"/><path class="cls-1" d="M149.61,22.68a1.81,1.81,0,0,0-.12.29A2,2,0,0,0,149.61,22.68Z"/><path class="cls-1" d="M158.53,25.83l0,0S158.86,25.77,158.53,25.83Z"/><path class="cls-1" d="M144,24.3V22.91A13.85,13.85,0,0,0,144,24.3Z"/><path class="cls-1" d="M143.15,24.78h0C143.18,24.67,143.18,24.64,143.15,24.78Z"/><path class="cls-1" d="M156.71,76.61c0.16-.38,0-0.89.23-1.24a1.89,1.89,0,0,1,.83-0.6c0.42-.34.15-0.83-0.19-1.17s0.31-.45.54-0.7a1.66,1.66,0,0,0,.35-1.27c0-.53,0-1.07.06-1.6a1.22,1.22,0,0,0,0-.16,23.35,23.35,0,0,1,.93-4.76,3.91,3.91,0,0,0,.26-1.27,19.78,19.78,0,0,1,.56-2.64c0.42-1.66.63-2.73,0.76-3.5a12.37,12.37,0,0,1,.27-2l1.89-.83s0.92-.35,1.47-0.58,1.83-.72,2.54-1a31.89,31.89,0,0,0,5-2.23A44.71,44.71,0,0,0,176.84,48a2.43,2.43,0,0,1,1.25-.71c0.14,0.07.22-.22,0.22-0.22a1.3,1.3,0,0,1,.4-0.18c0.15,0,.32.44,0.49,0.27s0.25-.64.4-0.76,2.17-2.64,3.21-4.1a35.16,35.16,0,0,0,2-3.48c0.39-.6,1-1.38,1.52-1.16s1.59-.14,2.67-0.4a26,26,0,0,1,2.58-.4,7.1,7.1,0,0,0,1.74-1.11,11.15,11.15,0,0,1,1.69-1.2,19,19,0,0,0,2-1.47c0.63-.49,1.47-1.34,1.47-1.34s0.21,0,.27.49,0.08,2.54,0,3.25-0.22,2.39-.22,3.34-0.15,1.86.36,2.18,1.5,0.76,2,1.11a8.38,8.38,0,0,0,2.18.8,9.59,9.59,0,0,0,2.09.27l-0.18-.36,0.49-.09s-1.11-1.51-1.47-2a2.52,2.52,0,0,1-.45-0.71s0.68,0.39,1.2.76a1.9,1.9,0,0,0,1.38.4,3.57,3.57,0,0,1,.85.22c0.22,0.06,1,0,1.69.09a1.92,1.92,0,0,0,1.16-.31L209.6,41s0.86,0.06.4-.31-1-.83-1.29-1.11a6.19,6.19,0,0,0-1.47-1.2,5,5,0,0,0-.67,0s0.22-.53-0.13-0.67a1.09,1.09,0,0,0-.58-0.09,0.65,0.65,0,0,0-.4-0.18c-0.27,0-.2,0-0.31-0.36a33,33,0,0,1-.85-5,12.39,12.39,0,0,0-.4-2.81,19.47,19.47,0,0,1-.67-2.58,2.93,2.93,0,0,0-.53-1.43A1.61,1.61,0,0,0,201.4,25a5.2,5.2,0,0,1-1.07.53,2.27,2.27,0,0,0-1.16.31,23.69,23.69,0,0,1-2.5,1.38c-1,.41-1.52.58-1.52,0.58s0.11-1.37.13-1.78,0.47-3.38-3.65-6.77a1.53,1.53,0,0,0-1.2-.22,0.62,0.62,0,0,1-.8-0.67,16.76,16.76,0,0,1,.71-2.36,3.2,3.2,0,0,0-.13-2.81,23.81,23.81,0,0,0-3.08-3,8.84,8.84,0,0,1,2.32,2.94c0.08,0.23.29,0.72-.09,0.31a5.84,5.84,0,0,0-2.18-1.2,2.3,2.3,0,0,1-.85-0.27,8.06,8.06,0,0,0,1.16.53c0.7,0.27,1.83,1.32,1.25,1.11a6.69,6.69,0,0,0-2.67.27c-0.76.18-2.71-.12-3.16-0.8a4.82,4.82,0,0,1-.94-4,17.41,17.41,0,0,1,.54-2c-0.28.67-.81,2-0.86,2.27s0,0,0-.62,0.22-2.05.22-2.05a17.79,17.79,0,0,0-.45,4.46c0,0.55,0,1.37-.36-0.18a14.4,14.4,0,0,1,.53-5.62c0.09-.3.22-0.63,0.36-1l-1.52,3.37,1.07-4.55L180.4,6.91l0.09-1.69,1.11-2.5-1.25,2.41,0.4-2.72L180.58,3l0-.45s-0.94,4.22-1.11,4.77A9.28,9.28,0,0,0,179,9.58a8,8,0,0,0,.49,1.78s0.34,1-.49-0.4-1-4.78-.71-5.88a2.06,2.06,0,0,1,1.07-1.43A2,2,0,0,0,178,4.72c-0.22.76-.58,2.18-0.58,2.18s-0.27-2.24-.31-3.12,0-3.79,0-3.79l-0.4,4.59s0,1.56-.18-0.27a29,29,0,0,1-.13-4,29.74,29.74,0,0,0-.09,4.32,31.1,31.1,0,0,0,1.34,6.06,7.49,7.49,0,0,0,.71,1.34,6,6,0,0,0,.45,1.47,11.25,11.25,0,0,0,2.72,1.92,1.77,1.77,0,0,1,.85.76,5.65,5.65,0,0,0,2.23.53c1,0,3,.45,2.5.67a1.59,1.59,0,0,1-.94.62l-2,.94c-0.46.21-3.05,1.41-4.19,2.05a29.18,29.18,0,0,0-3.12,1.83,7.62,7.62,0,0,1-1.25.76c-0.41.21-3.95,1.68-6.51,3a6.26,6.26,0,0,1-2.14,1,2.83,2.83,0,0,0-.94.62,3.36,3.36,0,0,1-1.29.58c-0.51.1-1,.15-0.8,0s1.7-1.36,2.94-2.14a4.65,4.65,0,0,1,1.38-.58,4.57,4.57,0,0,0-1.74.36c-1.64.65-3,1.13-3.57,0.89a4.53,4.53,0,0,0-2.58.18,10.06,10.06,0,0,1-2.09-.18,4.46,4.46,0,0,0-1.38.18s0.95-.73,3.88-0.58a1.94,1.94,0,0,0,.58,0,8.65,8.65,0,0,0-2.5-.62c-1,0-4.35.34-1.92-.18l1.61-.33a4.28,4.28,0,0,0-3.71-.11,8.56,8.56,0,0,0-2.76,2.9L151.84,27a6.8,6.8,0,0,1,0,1.65,2.52,2.52,0,0,1-.49,1.07s-0.61-4.14,1.29-5.3a5.22,5.22,0,0,1,1.16-.58,4.66,4.66,0,0,0-4.1,3.34c0.13-.33-0.12-1.15.09-2.09a8.7,8.7,0,0,1,.89-2.14,3.47,3.47,0,0,0-1.53,1.81,1.82,1.82,0,0,1-.07.37,2,2,0,0,1,.07-0.37,14.71,14.71,0,0,1,.39-1.74c-0.25.57-.77,1.76-0.77,1.76l0.36-2.67-0.53,2.18,0-2.27-0.71,2.5L148,22.11,147.47,25l0-2.05-0.76,3.25,0.09-3.08-0.67,5s-0.41,1.06-.36-1.56,0.09-2.9.09-2.9l-0.58,2.63-0.09-2.63-0.58,4.23a9,9,0,0,1-.62-3.16c0-.15,0-0.29,0-0.44,0,1.84,0,4.86,0,5,0-.18-1-3.85-0.89-4.49l-0.53,1.95-0.53-2.54,0.31,3.65s0.69,3-.18.67-1.38-4.19-1.38-4.19l0.67,5.13s-0.68-2-.76-2.27-0.45-1.56-.45-1.56L141,29.07a3.64,3.64,0,0,1,.32,1.36c-0.18.58-.87-0.6-1-0.81a3.31,3.31,0,0,1-.48-1,4.46,4.46,0,0,1,0-1.93,1.49,1.49,0,0,0,0-.7c-0.14-.22,0-0.11-0.21,0a0.35,0.35,0,0,0-.1,0,7.3,7.3,0,0,0-.52,1.23,8.22,8.22,0,0,0-.31,3c0,0.32.41,1.6,0,1a18.87,18.87,0,0,0-2.23-2.67,2,2,0,0,0,.31.71l-0.53-.31,0.76,1.6a3.73,3.73,0,0,1-1.38-1c-0.25-.48-0.22.24,0.31,1.2a5,5,0,0,1,.58,1.25,4.6,4.6,0,0,0-1-.18,5.08,5.08,0,0,0-1.07.09,3.29,3.29,0,0,1-.52-0.1,2.59,2.59,0,0,1-.67,0A3.06,3.06,0,0,1,132,31c-0.9-.88-0.61-1.56,0-2.46a9.07,9.07,0,0,1,1.08-1.24,3.93,3.93,0,0,0,.65-0.62c0.08-.14.7-0.91-0.8-0.13s-3.48,2.77-3.16,4.55a4.61,4.61,0,0,0,1.34,2.18,16.18,16.18,0,0,0-2.76,3.08c-0.47,1-.62,1.34-0.62,1.34s-0.15.32,0.09,0.27-0.49,1.74-.58,2.05a3,3,0,0,0-.27.71,10.22,10.22,0,0,1-.45,1c-0.08.34-.49,1.88-0.62,2.41a11.5,11.5,0,0,0-.31,1.11,13.52,13.52,0,0,0-.53,2.41c0.09,0.47.36,1.34,0.36,1.34a2,2,0,0,0,.36,1.6l0.49,0.45a1,1,0,0,0,.94.62,3.11,3.11,0,0,0,1.2-.18,1.26,1.26,0,0,0,1.2,0c0.61-.27.52-0.46,0.47-0.52a1.76,1.76,0,0,1,.38.47,8.41,8.41,0,0,1,0,1l0.27-1.29a2.56,2.56,0,0,1,.67,1.2c0.33,1.45.27,0.18,0.27,0.18s0-1,.76,0,0.57,0.92.67-.58,0.06-1.84.4-.49a4.34,4.34,0,0,0,.8,2.05,7.92,7.92,0,0,1,.67.62,2.65,2.65,0,0,0-.27-1.29,1.45,1.45,0,0,1-.13-1.07,4,4,0,0,0,.71,1.56,1.48,1.48,0,0,0,.53.31,3.83,3.83,0,0,1-.71-1.6,3.67,3.67,0,0,0-.13-1.34s0.18,0,.36,1.25a2.17,2.17,0,0,0,.31.89c0,0.07.31,0.62,0.31,0.62a8.54,8.54,0,0,1-.09-1.38,8.63,8.63,0,0,0-.09-1.69c-0.06-.18.27,0,0.36,0.67s0.12,1.49.18,1.69a1.8,1.8,0,0,0,.13.36,10.09,10.09,0,0,1-.09-1.25c0-.75,0-1.73-0.09-2.05a2.47,2.47,0,0,1,.27-1s2.07,4.27,3.83,5.35,1.87,1,1.87,1l-0.67-2.18,1,2.09L141.81,53a11.76,11.76,0,0,1,1.16,1.6,7.35,7.35,0,0,0-.36-1.6,4,4,0,0,1,.8.67,2.28,2.28,0,0,1,.36,2.52,4.45,4.45,0,0,0,.53-2,0.63,0.63,0,1,1,0-.17,0.62,0.62,0,0,1,0,.17c0.19,0.47.57,1.35,0.57,1.35a2.55,2.55,0,0,0,.09-1.78c-0.31-1,.49.71,0.49,0.71l-0.58-2.54a14.2,14.2,0,0,0,1.83.85,9.17,9.17,0,0,1,2.81,1.43,2.5,2.5,0,0,0,.76.4s-1-.79,0-0.18,0.49,0.68,1.11,1.16a8.16,8.16,0,0,0,2.14,1.34,2.27,2.27,0,0,1,.62.45,21,21,0,0,1-.3,3.65c-0.31,1-.68,2.14-0.79,2.41a3,3,0,0,0,.16,1.93v0.06c-0.07.59-.14,1.2-0.16,1.7-0.05,1.22-.31,4.5-0.31,4.5a5.28,5.28,0,0,1-1.57,2.46,23.3,23.3,0,0,0-2.87,2.81h0L96,78.59H210.07l-53.55-1.7A0.82,0.82,0,0,0,156.71,76.61Zm44.46-39.13,0.36-4.55s0-.93.18-0.18c0,0,.63,3,0.85,4.86a4,4,0,0,0,.18,1.11,2,2,0,0,1,.09.76,0.72,0.72,0,0,0-.49.31,3.47,3.47,0,0,1-.09-0.76,0.33,0.33,0,0,0-.31-0.22,0.91,0.91,0,0,1-.71-0.53A1.78,1.78,0,0,1,201.17,37.48ZM155,72.66c0.07-.53.13-1.06,0.18-1.59a1.21,1.21,0,0,0,0-.16,21.29,21.29,0,0,1,1-3.87c0,1.47,0,3.72,0,3.72a5.21,5.21,0,0,1-1.3,2.46C154.92,73,154.94,72.87,155,72.66Z"/><path class="cls-1" d="M3.28,108H4.52a2.77,2.77,0,0,0,1-.16,1.85,1.85,0,0,0,.71-0.55l8.11-9.18a2,2,0,0,1,.71-0.61A2.21,2.21,0,0,1,16,97.37H18.8L9.52,107.86a5.28,5.28,0,0,1-.65.67,3.12,3.12,0,0,1-.67.43,2.72,2.72,0,0,1,.83.45,4.22,4.22,0,0,1,.73.77l9.69,11.54H16.59a3.09,3.09,0,0,1-.55,0,1.33,1.33,0,0,1-.4-0.14,1.31,1.31,0,0,1-.3-0.22,2.21,2.21,0,0,1-.25-0.3l-8.4-9.67a2,2,0,0,0-.73-0.6,3,3,0,0,0-1.19-.18H3.28v11.15H0V97.37H3.28V108Z"/><path class="cls-1" d="M49.06,121.73h-3.3V110.64H32.62v11.08h-3.3V97.37h3.3v10.86H45.76V97.37h3.3v24.36Z"/><path class="cls-1" d="M81.89,121.73H79.34a1.1,1.1,0,0,1-.71-0.22,1.35,1.35,0,0,1-.41-0.56l-2.28-5.88H65l-2.28,5.88a1.19,1.19,0,0,1-.39.54,1.09,1.09,0,0,1-.71.24H59.07l9.74-24.36h3.33Zm-16-9H75l-3.83-9.91a10.81,10.81,0,0,1-.37-1q-0.18-.58-0.37-1.24c-0.11.44-.23,0.86-0.35,1.25a10.43,10.43,0,0,1-.37,1Z"/><path class="cls-1" d="M95.18,108h1.24a2.77,2.77,0,0,0,1-.16,1.85,1.85,0,0,0,.71-0.55l8.11-9.18a1.94,1.94,0,0,1,.71-0.61,2.21,2.21,0,0,1,.92-0.17h2.79l-9.28,10.49a5.32,5.32,0,0,1-.65.67,3.12,3.12,0,0,1-.67.43,2.71,2.71,0,0,1,.83.45,4.22,4.22,0,0,1,.73.77l9.69,11.54h-2.86a3.08,3.08,0,0,1-.55,0,1.28,1.28,0,0,1-.7-0.36A2.21,2.21,0,0,1,107,121l-8.4-9.67a2,2,0,0,0-.73-0.6,3,3,0,0,0-1.19-.18h-1.5v11.15H91.9V97.37h3.28V108Z"/><path class="cls-1" d="M124.52,121.73h-3.3V97.37h3.3v24.36Z"/><path class="cls-1" d="M161.28,97.1a6.67,6.67,0,0,1,2.45.43,6.26,6.26,0,0,1,1.9,1.15,5.45,5.45,0,0,1,1.27,1.66,5.15,5.15,0,0,1,.54,2l-1.89.37a0.69,0.69,0,0,1-.83-0.53,4.15,4.15,0,0,0-.38-0.92,3.54,3.54,0,0,0-.68-0.87,3.47,3.47,0,0,0-1-.65,3.41,3.41,0,0,0-1.37-.25,4.15,4.15,0,0,0-1.54.27,3.41,3.41,0,0,0-1.17.76,3.27,3.27,0,0,0-.74,1.14,3.88,3.88,0,0,0-.25,1.42,4.68,4.68,0,0,0,.14,1.14,4.92,4.92,0,0,0,.43,1.1,7.52,7.52,0,0,0,.76,1.14,14.42,14.42,0,0,0,1.11,1.22l7,7.12a12.35,12.35,0,0,0,1-2.4,13.35,13.35,0,0,0,.52-2.5,0.87,0.87,0,0,1,.2-0.51,0.61,0.61,0,0,1,.48-0.19h1.85a12.84,12.84,0,0,1-.62,3.83,14,14,0,0,1-1.71,3.53l5.1,5.19h-2.94a2.25,2.25,0,0,1-.8-0.12,2,2,0,0,1-.66-0.49L167,118.65a12.22,12.22,0,0,1-3.68,2.45,11.41,11.41,0,0,1-4.58.9,7.92,7.92,0,0,1-2.66-.46,7.41,7.41,0,0,1-2.34-1.33,6.64,6.64,0,0,1-1.67-2.13,6.25,6.25,0,0,1-.63-2.84,6.35,6.35,0,0,1,.4-2.25,7.38,7.38,0,0,1,1.11-2,8.41,8.41,0,0,1,1.68-1.62,11.39,11.39,0,0,1,2.13-1.22,9.82,9.82,0,0,1-1.54-2.55,7,7,0,0,1-.48-2.57,6,6,0,0,1,.45-2.33,5.48,5.48,0,0,1,1.3-1.9,6.19,6.19,0,0,1,2.07-1.28A7.55,7.55,0,0,1,161.28,97.1Zm-2,22.44a8.08,8.08,0,0,0,3.42-.7,9.17,9.17,0,0,0,2.67-1.85l-7.19-7.26a7.39,7.39,0,0,0-2.71,2.32,5.18,5.18,0,0,0-.91,2.95,4.32,4.32,0,0,0,1.48,3.37,4.55,4.55,0,0,0,1.51.88A5.19,5.19,0,0,0,159.25,119.53Z"/><path class="cls-1" d="M220.67,109.56a13.74,13.74,0,0,1-.87,5,11,11,0,0,1-2.45,3.84,10.88,10.88,0,0,1-3.8,2.47,13.24,13.24,0,0,1-4.9.88h-9.09V97.37h9.09a13.24,13.24,0,0,1,4.9.88,10.82,10.82,0,0,1,3.8,2.48,11.14,11.14,0,0,1,2.45,3.85A13.74,13.74,0,0,1,220.67,109.56Zm-3.38,0a12.25,12.25,0,0,0-.61-4,8.45,8.45,0,0,0-1.73-3,7.4,7.4,0,0,0-2.72-1.87,9.45,9.45,0,0,0-3.57-.65h-5.8v19h5.8a9.45,9.45,0,0,0,3.57-.65,7.45,7.45,0,0,0,2.72-1.86,8.37,8.37,0,0,0,1.73-3A12.25,12.25,0,0,0,217.29,109.56Z"/><path class="cls-1" d="M241.62,119.11a6.8,6.8,0,0,0,2.7-.51,5.67,5.67,0,0,0,2-1.43,6.24,6.24,0,0,0,1.26-2.19,8.67,8.67,0,0,0,.43-2.81V97.37h3.28v14.81a11.09,11.09,0,0,1-.67,3.91,9.08,9.08,0,0,1-1.92,3.12,8.8,8.8,0,0,1-3.05,2.07,11.32,11.32,0,0,1-8.09,0,8.87,8.87,0,0,1-3.06-2.07,9,9,0,0,1-1.93-3.12,11.09,11.09,0,0,1-.67-3.91V97.37h3.28v14.79a8.66,8.66,0,0,0,.43,2.8,6.24,6.24,0,0,0,1.26,2.19,5.74,5.74,0,0,0,2,1.44A6.76,6.76,0,0,0,241.62,119.11Z"/><path class="cls-1" d="M276.49,101.17a1.25,1.25,0,0,1-.33.38,0.73,0.73,0,0,1-.43.13,1.22,1.22,0,0,1-.68-0.29q-0.39-.29-1-0.64a7.89,7.89,0,0,0-1.41-.64,6.08,6.08,0,0,0-2-.29,5.83,5.83,0,0,0-1.95.3,4.16,4.16,0,0,0-1.41.81,3.31,3.31,0,0,0-.86,1.2,3.79,3.79,0,0,0-.29,1.49,2.75,2.75,0,0,0,.5,1.69,4.3,4.3,0,0,0,1.33,1.15,10.16,10.16,0,0,0,1.87.83L272,108q1.1,0.38,2.14.84A7.59,7.59,0,0,1,276,110a5.39,5.39,0,0,1,1.33,1.75,5.82,5.82,0,0,1,.5,2.55,8.24,8.24,0,0,1-.54,3,6.93,6.93,0,0,1-1.59,2.44,7.43,7.43,0,0,1-2.57,1.63,9.45,9.45,0,0,1-3.46.59,10.55,10.55,0,0,1-4.32-.86,10.13,10.13,0,0,1-3.31-2.32l1-1.56a1.27,1.27,0,0,1,.33-0.31,0.78,0.78,0,0,1,.43-0.13,1,1,0,0,1,.5.18c0.19,0.12.4,0.27,0.64,0.45l0.82,0.59a6.61,6.61,0,0,0,1,.59,7,7,0,0,0,1.33.45,7.26,7.26,0,0,0,1.68.18,6.3,6.3,0,0,0,2.09-.32,4.45,4.45,0,0,0,1.56-.91,4,4,0,0,0,1-1.4,4.68,4.68,0,0,0,.34-1.82,3.05,3.05,0,0,0-.5-1.81,4.15,4.15,0,0,0-1.32-1.18A9.12,9.12,0,0,0,271,111l-2.14-.68a22.87,22.87,0,0,1-2.14-.81,7,7,0,0,1-1.87-1.19,5.48,5.48,0,0,1-1.32-1.83,7,7,0,0,1,0-5.21A6.4,6.4,0,0,1,265,99.15a7.16,7.16,0,0,1,2.36-1.5,8.63,8.63,0,0,1,3.22-.56,10.25,10.25,0,0,1,3.71.65,8.76,8.76,0,0,1,2.95,1.87Z"/><path class="cls-1" d="M305.74,97.37v2.77h-7.89v21.59h-3.28V100.14h-7.91V97.37h19.07Z"/><path class="cls-1" d="M114.37,141.74a0.69,0.69,0,0,1-.18.21,0.4,0.4,0,0,1-.24.07,0.66,0.66,0,0,1-.37-0.16q-0.22-.16-0.54-0.35a4.48,4.48,0,0,0-.78-0.35,3.35,3.35,0,0,0-1.1-.16,3.23,3.23,0,0,0-1.07.16,2.31,2.31,0,0,0-.78.45,1.82,1.82,0,0,0-.47.66,2.09,2.09,0,0,0-.16.82,1.51,1.51,0,0,0,.28.93,2.37,2.37,0,0,0,.73.63,5.53,5.53,0,0,0,1,.45l1.18,0.4q0.61,0.21,1.18.46a4.17,4.17,0,0,1,1,.65,3,3,0,0,1,.73,1,3.21,3.21,0,0,1,.28,1.4,4.55,4.55,0,0,1-.3,1.65,3.83,3.83,0,0,1-.88,1.34,4.1,4.1,0,0,1-1.41.9,5.2,5.2,0,0,1-1.91.33,5.82,5.82,0,0,1-2.38-.47,5.57,5.57,0,0,1-1.83-1.28l0.52-.86a0.7,0.7,0,0,1,.18-0.17,0.43,0.43,0,0,1,.24-0.07,0.53,0.53,0,0,1,.28.1L108,150.7l0.45,0.33a3.61,3.61,0,0,0,.58.33,3.87,3.87,0,0,0,.74.25,4,4,0,0,0,.93.1,3.44,3.44,0,0,0,1.15-.18,2.44,2.44,0,0,0,.86-0.5,2.15,2.15,0,0,0,.54-0.77,2.59,2.59,0,0,0,.19-1,1.68,1.68,0,0,0-.28-1,2.3,2.3,0,0,0-.73-0.65,5,5,0,0,0-1-.44l-1.18-.38q-0.6-.19-1.18-0.44a3.84,3.84,0,0,1-1-.66,3,3,0,0,1-.73-1,3.85,3.85,0,0,1,0-2.87,3.51,3.51,0,0,1,.8-1.18,3.92,3.92,0,0,1,1.3-.82,4.74,4.74,0,0,1,1.77-.31,5.66,5.66,0,0,1,2,.36,4.84,4.84,0,0,1,1.63,1Z"/><path class="cls-1" d="M132.08,153.06h-1.4a0.6,0.6,0,0,1-.39-0.12,0.75,0.75,0,0,1-.22-0.31l-1.25-3.24h-6l-1.25,3.24a0.65,0.65,0,0,1-.22.3,0.6,0.6,0,0,1-.39.13h-1.4l5.37-13.42h1.83Zm-8.79-5h5l-2.11-5.46c-0.07-.16-0.14-0.35-0.2-0.56s-0.13-.44-0.2-0.68q-0.09.37-.19,0.69a5.41,5.41,0,0,1-.2.57Z"/><path class="cls-1" d="M145.86,139.64v1.48h-6.45v4.69h5.52v1.48h-5.52v5.77h-1.82V139.64h8.27Z"/><path class="cls-1" d="M161.75,153.06h-1.4a0.6,0.6,0,0,1-.39-0.12,0.74,0.74,0,0,1-.22-0.31l-1.26-3.24h-6l-1.25,3.24a0.65,0.65,0,0,1-.22.3,0.59,0.59,0,0,1-.39.13h-1.4l5.36-13.42h1.84Zm-8.79-5h5l-2.11-5.46a5.64,5.64,0,0,1-.2-0.56q-0.1-.32-0.2-0.68-0.09.37-.19,0.69t-0.2.57Z"/><path class="cls-1" d="M169.07,147.46v5.6h-1.81V139.64h3.79a8.28,8.28,0,0,1,2.2.26,4.2,4.2,0,0,1,1.53.74,3,3,0,0,1,.89,1.18,3.92,3.92,0,0,1,.29,1.54,3.86,3.86,0,0,1-.22,1.33,3.52,3.52,0,0,1-.65,1.11,4,4,0,0,1-1,.84,4.85,4.85,0,0,1-1.39.52,2.09,2.09,0,0,1,.6.57l3.91,5.33h-1.61a0.79,0.79,0,0,1-.73-0.38l-3.48-4.79a1,1,0,0,0-.34-0.32,1.24,1.24,0,0,0-.57-0.1h-1.38Zm0-1.32H171a4.59,4.59,0,0,0,1.39-.19,2.86,2.86,0,0,0,1-.54,2.27,2.27,0,0,0,.61-0.84,2.75,2.75,0,0,0,.21-1.08,2.14,2.14,0,0,0-.79-1.81,3.82,3.82,0,0,0-2.36-.61h-2v5.07Z"/><path class="cls-1" d="M184.56,153.06h-1.82V139.64h1.82v13.42Z"/><path class="cls-1" d="M198.59,141.74a0.69,0.69,0,0,1-.18.21,0.4,0.4,0,0,1-.24.07,0.66,0.66,0,0,1-.37-0.16q-0.22-.16-0.54-0.35a4.48,4.48,0,0,0-.78-0.35,3.35,3.35,0,0,0-1.1-.16,3.23,3.23,0,0,0-1.07.16,2.31,2.31,0,0,0-.78.45,1.82,1.82,0,0,0-.47.66,2.09,2.09,0,0,0-.16.82,1.51,1.51,0,0,0,.28.93,2.37,2.37,0,0,0,.73.63,5.53,5.53,0,0,0,1,.45l1.18,0.4q0.61,0.21,1.18.46a4.17,4.17,0,0,1,1,.65,3,3,0,0,1,.73,1,3.21,3.21,0,0,1,.28,1.4,4.55,4.55,0,0,1-.3,1.65,3.83,3.83,0,0,1-.88,1.34,4.1,4.1,0,0,1-1.41.9,5.2,5.2,0,0,1-1.91.33,5.82,5.82,0,0,1-2.38-.47,5.57,5.57,0,0,1-1.83-1.28l0.52-.86a0.7,0.7,0,0,1,.18-0.17,0.43,0.43,0,0,1,.24-0.07,0.53,0.53,0,0,1,.28.1l0.35,0.25,0.45,0.33a3.61,3.61,0,0,0,.58.33,3.87,3.87,0,0,0,.74.25,4,4,0,0,0,.93.1,3.44,3.44,0,0,0,1.15-.18,2.44,2.44,0,0,0,.86-0.5,2.15,2.15,0,0,0,.54-0.77,2.59,2.59,0,0,0,.19-1,1.68,1.68,0,0,0-.28-1,2.3,2.3,0,0,0-.73-0.65,5,5,0,0,0-1-.44l-1.18-.38q-0.6-.19-1.18-0.44a3.84,3.84,0,0,1-1-.66,3,3,0,0,1-.73-1,3.85,3.85,0,0,1,0-2.87,3.51,3.51,0,0,1,.8-1.18,3.92,3.92,0,0,1,1.3-.82,4.74,4.74,0,0,1,1.77-.31,5.66,5.66,0,0,1,2,.36,4.84,4.84,0,0,1,1.63,1Z"/></svg>